<svg id="Layer_1" data-name="Layer 1" xmlns="http://www.w3.org/2000/svg" viewBox="0 0 169.18 52.56"><defs><style>.cls-1{fill:#fbfbfb;}.cls-2{fill:#749abe;}.cls-3{fill:#ebebeb;}.cls-4{fill:#fdf8e9;}</style></defs><title>acnapi-logo-blue</title><path class="cls-1" d="M375.29,438.76c-2-1-1.25-2.88-1.27-4.42-.07-6.11,0-12.22,0-18.34,0-6.37.37-6.73,6.73-6.09a17.1,17.1,0,0,1,3.28,1v28l-2.14-.06c-2.27-3.33-1.17-7.1-1.34-10.68-.18-3.82.07-7.66-.11-11.48-.06-1.42.15-3.47-1.86-3.53s-1.91,2-2,3.42c-.18,5.32,0,10.64-.1,16C376.46,434.66,376.74,436.89,375.29,438.76Z" transform="translate(-214.82 -395.36)"/><path class="cls-2" d="M384,400.89c-1.09,1.17-1.41,3-3.12,3.64-2.44.93-4.65.67-6.07-1.61-1.92-3.07-.37-5.28,2.19-7.07,3.33-1.29,5.53,0,7,3Z" transform="translate(-214.82 -395.36)"/><path class="cls-2" d="M348.89,437.16c-1.91-2.13-2.71-1.1-2.85,1.1s-.09,4.33,0,6.49c0,2-.53,3.1-2.79,3.16-2.5.08-3.09-1.11-3.09-3.33,0-11.15-.05-22.3-.09-33.45,2.26-.38,4.62-1.88,6.46,1,1.15,1.8,1.91-.22,2.69-.61,6-3,12.27-1.71,16.42,3.6a15.72,15.72,0,0,1-.69,19.71C360.58,439.74,354.8,440.58,348.89,437.16Z" transform="translate(-214.82 -395.36)"/><path class="cls-2" d="M333,428.38a35.88,35.88,0,0,0,.06,6c.8,4.77-2.64,5.57-5.17,4.09-2.68-1.58-4.18-.52-6.25.23a12,12,0,0,1-6.39.29c-4.38-.84-6.68-3.67-7-7.88s2.5-6.77,6.32-7.77c2.36-.61,4.94-.36,7.42-.58,1.21-.1,3.05.69,3.37-1.11a3.94,3.94,0,0,0-2.51-4.43,7,7,0,0,0-7.83,1.59c-1.8,1.73-2.69.89-3.94-.54-1.46-1.66-1.82-3,.13-4.55,4.49-3.57,9.43-4.81,14.89-2.81S333,417.22,333,422.4C333.05,424.39,333,426.38,333,428.38Z" transform="translate(-214.82 -395.36)"/><path class="cls-2" d="M214.82,433c.06-1.72.11-3.43.16-5.14,2.64-5,7.35-5,12.09-5.22,1.58-.08,4.65,1.54,4.47-1.92-.15-2.93-2.45-4.13-5.35-4a6.8,6.8,0,0,0-4.54,1.83c-1.73,1.66-2.94,1.48-4.45-.4-1.71-2.14-1-3.56.82-5,4.64-3.43,9.75-4.45,15.06-2.09,4.86,2.16,6.31,6.47,6.13,11.56-.13,3.82,0,7.66,0,11.49,0,4.4-2.07,6.28-5.57,4.18-2.33-1.4-3.46-.49-5.21.15C222.46,440.66,217.63,438.67,214.82,433Z" transform="translate(-214.82 -395.36)"/><path class="cls-2" d="M277,424.88a95.06,95.06,0,0,0-.07-10c-.5-4.83,2.72-5.2,5.5-4a5.74,5.74,0,0,0,5.21-.1c7.34-2.92,14.08,1.3,14.55,9.21.3,5.15,0,10.33.19,15.49.1,2.79-1.21,3.28-3.63,3.31-2.61,0-4.06-.47-3.89-3.54.22-3.82.12-7.67,0-11.5-.08-3.34-.67-6.64-4.95-6.74-4.51-.11-5.35,3.27-5.49,6.82-.15,3.82-.19,7.67,0,11.49.16,3.15-1.49,3.44-4,3.47s-3.65-.71-3.5-3.41C277.09,431.89,277,428.38,277,424.88Z" transform="translate(-214.82 -395.36)"/><path class="cls-2" d="M259.25,410a11.35,11.35,0,0,1,8.66,3.43c1.11,1.1,4.14,2.16,1.53,4.59-1.74,1.62-3.28,3.61-6.08.79s-6.4-2.38-9.33.44a7.76,7.76,0,0,0-.28,10.44c2.78,3,6.45,3.6,9.33.91,3.06-2.85,5-1,6.55.86,2.21,2.64-1,3.68-2.36,4.84-4.59,3.85-11.71,3.92-16.72.43a14.48,14.48,0,0,1-5.92-16.21A15,15,0,0,1,259.25,410Z" transform="translate(-214.82 -395.36)"/><path class="cls-2" d="M375.29,438.76c-.11-8.62-.18-17.24-.34-25.87-.05-2.62,1.69-2.49,3.33-2.3s4.18-1.12,4.12,2c-.18,8.76.79,17.55-.54,26.29Z" transform="translate(-214.82 -395.36)"/><path class="cls-1" d="M354.1,417c3.9.11,6.88,3.44,6.86,7.67a7.28,7.28,0,0,1-7.46,7.54c-4-.21-6.64-3.46-6.49-7.9S350.06,416.85,354.1,417Z" transform="translate(-214.82 -395.36)"/><path class="cls-3" d="M321.35,427.61c1.36.79,4-1.17,3.88,1.61-.18,3-2.6,4.41-5.54,4.48-2,.05-3.84-.76-3.79-2.95C316,426.85,319.32,428.26,321.35,427.61Z" transform="translate(-214.82 -395.36)"/><path class="cls-4" d="M231.61,429c-.82,3-2.65,4.45-5.36,4.67-2.25.17-4.14-.82-4-3.22.16-3,2.82-2.72,4.89-2.62C228.66,427.92,230.7,426.91,231.61,429Z" transform="translate(-214.82 -395.36)"/></svg>